<?xml version="1.0" encoding="iso-8859-1"?>
<!-- Uploaded to: SVG Repo, www.svgrepo.com, Generator: SVG Repo Mixer Tools -->
<svg fill="#000000" height="800px" width="800px" version="1.1" id="Layer_1" xmlns="http://www.w3.org/2000/svg" xmlns:xlink="http://www.w3.org/1999/xlink" 
	 viewBox="0 0 511.999 511.999" xml:space="preserve">
<g>
	<g>
		<path d="M485.908,3.202H167.565c-9.606,0-17.394,7.788-17.394,17.394V345.29c0,9.607,7.788,17.396,17.394,17.396h318.343
			c9.606,0,17.394-7.788,17.394-17.394V20.597C503.302,10.99,495.514,3.202,485.908,3.202z"/>
	</g>
</g>
<g>
	<g>
		<path d="M485.909,398.303H106.733V95.392c0-14.41-11.681-26.091-26.091-26.091H26.091C11.681,69.301,0,80.982,0,95.392
			s11.681,26.091,26.091,26.091H54.55v302.91c0,14.41,11.681,26.091,26.091,26.091h17.892c-0.355,2.421-0.546,4.895-0.546,7.413
			c0,28.066,22.833,50.899,50.899,50.899c28.065,0,50.899-22.833,50.899-50.899c0-2.518-0.191-4.992-0.546-7.413h160.209
			c-0.355,2.421-0.546,4.895-0.546,7.413c0,28.066,22.833,50.899,50.899,50.899c28.066,0,50.899-22.833,50.899-50.899
			c0-2.518-0.191-4.992-0.546-7.413h25.754c14.41,0,26.091-11.682,26.091-26.091C512,409.985,500.319,398.303,485.909,398.303z
			 M148.887,474.009c-8.883,0-16.11-7.227-16.11-16.11s7.227-16.11,16.11-16.11s16.11,7.227,16.11,16.11
			S157.77,474.009,148.887,474.009z M409.802,474.009c-8.883,0-16.11-7.227-16.11-16.11s7.227-16.11,16.11-16.11
			c8.883,0,16.11,7.227,16.11,16.11S418.684,474.009,409.802,474.009z"/>
	</g>
</g>
</svg>